<?xml version="1.0" standalone="no"?>
<!DOCTYPE svg PUBLIC "-//W3C//DTD SVG 20010904//EN"
 "http://www.w3.org/TR/2001/REC-SVG-20010904/DTD/svg10.dtd">
<svg version="1.0" xmlns="http://www.w3.org/2000/svg"
 width="1024.000000pt" height="1024.000000pt" viewBox="0 0 1024.000000 1024.000000"
 preserveAspectRatio="xMidYMid meet">

<g transform="translate(0.000000,1024.000000) scale(0.100000,-0.100000)"
fill="#000000" stroke="none">
<path d="M0 5120 l0 -5120 5120 0 5120 0 0 5120 0 5120 -5120 0 -5120 0 0
-5120z m5261 3955 c157 -27 337 -105 456 -197 83 -63 186 -178 241 -268 98
-159 142 -326 142 -537 0 -175 -23 -163 295 -163 282 0 301 -3 330 -60 14 -26
15 -79 13 -378 -3 -346 -3 -347 -28 -395 -30 -60 -104 -130 -167 -160 l-48
-22 -1375 0 -1375 0 -57 28 c-71 35 -150 119 -172 183 -24 71 -24 703 0 744
35 57 48 60 324 60 154 0 259 4 271 10 17 9 19 22 19 108 0 187 27 336 85 472
147 347 502 585 881 589 45 1 119 -6 165 -14z m-2059 -1607 c4 -447 4 -450 94
-595 72 -117 173 -198 313 -252 l66 -26 1407 -3 c1219 -2 1417 0 1480 13 220
45 400 222 458 451 18 70 20 112 20 441 l0 363 213 0 c232 0 289 -9 381 -58
72 -38 195 -164 229 -234 61 -128 57 89 55 -3090 l-3 -2903 -22 -58 c-12 -32
-34 -80 -49 -108 -34 -61 -151 -174 -220 -211 -115 -62 54 -58 -2499 -58
-2032 0 -2338 2 -2388 15 -181 47 -329 187 -388 367 l-24 73 0 2915 0 2915 26
71 c50 135 146 248 264 308 97 49 133 54 367 55 l217 1 3 -392z"/>
<path d="M5008 8544 c-254 -61 -406 -326 -329 -573 67 -216 288 -357 505 -322
133 21 247 95 318 205 91 140 103 302 33 443 -98 199 -312 300 -527 247z"/>
</g>
</svg>
